<svg width="322" height="200" viewBox="0 0 322 200" fill="none" xmlns="http://www.w3.org/2000/svg">
<path d="M62.0359 24.5952L28.2441 52.9499C21.6038 58.5217 14.1677 65.5854 16.8655 73.8232C17.8176 76.7308 19.5169 79.4901 21.7694 81.6388C30.1169 89.6019 42.3747 80.9477 51.1933 73.5098L84.9468 45.0406C93.1746 38.101 102.207 27.878 95.9358 19.1304C87.9625 8.00934 72.5184 15.7993 62.0359 24.5952Z" fill="url(#paint0_linear_160_80)" stroke="#343131"/>
<path d="M280.752 107.573L233.733 147.027C224.679 154.624 228.774 168.365 239.212 171.808C248.394 174.837 257.111 167.269 264.502 161.036L299.293 131.695C309.078 123.443 319.504 110.45 310.89 100.982C302.791 92.0802 289.972 99.8373 280.752 107.573Z" fill="url(#paint1_linear_160_80)" stroke="#343131"/>
<path d="M173.234 21.5212L13.1807 155.822C-4.64968 174.047 17.2079 192.317 32.815 179.221L197.735 40.5895C202.629 36.4759 207.71 32.1989 210.272 26.3416C214.385 16.935 210.164 10.1189 201.913 8.54566C191.191 6.50119 181.595 14.5051 173.234 21.5212Z" fill="url(#paint2_linear_160_80)" stroke="#343131"/>
<path d="M270.915 72.3768L194.966 136.105C190.828 139.578 186.395 143.131 184.53 148.201C181.16 157.359 186.237 166.127 195.552 167.323C204.298 168.447 211.795 161.85 218.541 156.171L292.111 94.2417L292.258 94.1176C300.785 86.9407 311.915 77.5719 307.452 67.4031C306.634 65.5385 305.388 63.9245 303.836 62.6125C294.118 54.4017 280.66 64.1994 270.915 72.3768Z" fill="url(#paint3_linear_160_80)" stroke="#343131"/>
<path d="M254.952 41.8113L114.093 160.006C108.412 164.773 102.1 170.088 101.844 177.5C101.591 184.825 105.679 191.987 113.221 193.12C121.383 194.346 128.372 187.893 134.69 182.581L274.231 65.2505C295.458 45.1156 275.577 27.2829 254.952 41.8113Z" fill="url(#paint4_linear_160_80)" stroke="#343131"/>
<path d="M184.864 56.1477L93.7127 132.632C82.3907 145.122 88.1218 159.474 101.597 159.307C109.768 159.206 116.502 153.376 122.755 148.115L205.926 78.1201C213.858 71.4442 224.031 63.4378 221.703 53.3348C220.912 49.9008 218.746 47.1872 215.776 45.4147C205.623 39.3565 193.92 48.5483 184.864 56.1477Z" fill="url(#paint5_linear_160_80)" stroke="#343131"/>
<path d="M108.329 31.2109L26.2141 100.114C17.7934 107.18 7.32733 116.664 12.1424 126.545C13.9202 130.194 17.0928 133.086 20.8147 134.596C28.6508 137.774 36.4134 131.422 42.8834 125.978L131.87 51.0955C137.907 46.0157 144.955 40.597 145.718 32.7445C146.271 27.0495 143.193 22.615 138.449 20.2591C128.161 15.1503 117.128 23.8276 108.329 31.2109Z" fill="url(#paint6_linear_160_80)" stroke="#343131"/>
<defs>
<linearGradient id="paint0_linear_160_80" x1="93.6858" y1="17.9749" x2="20.8221" y2="79.1147" gradientUnits="userSpaceOnUse">
<stop stop-color="#8EEC6D"/>
<stop offset="0.534375" stop-color="#1F853B"/>
<stop offset="1" stop-color="#0852E2"/>
</linearGradient>
<linearGradient id="paint1_linear_160_80" x1="310.539" y1="102.517" x2="236.155" y2="164.932" gradientUnits="userSpaceOnUse">
<stop stop-color="#8EEC6D"/>
<stop offset="0.534375" stop-color="#1F853B"/>
<stop offset="1" stop-color="#0852E2"/>
</linearGradient>
<linearGradient id="paint2_linear_160_80" x1="212.691" y1="8.35032" x2="2.05773" y2="185.092" gradientUnits="userSpaceOnUse">
<stop stop-color="#8EEC6D"/>
<stop offset="0.534375" stop-color="#1F853B"/>
<stop offset="1" stop-color="#0852E2"/>
</linearGradient>
<linearGradient id="paint3_linear_160_80" x1="305.016" y1="63.6996" x2="186.817" y2="162.88" gradientUnits="userSpaceOnUse">
<stop stop-color="#8EEC6D"/>
<stop offset="0.534375" stop-color="#1F853B"/>
<stop offset="1" stop-color="#0852E2"/>
</linearGradient>
<linearGradient id="paint4_linear_160_80" x1="279.502" y1="41.1482" x2="97.2474" y2="194.078" gradientUnits="userSpaceOnUse">
<stop stop-color="#8EEC6D"/>
<stop offset="0.534375" stop-color="#1F853B"/>
<stop offset="1" stop-color="#0852E2"/>
</linearGradient>
<linearGradient id="paint5_linear_160_80" x1="218.692" y1="47.6996" x2="90.8172" y2="154.999" gradientUnits="userSpaceOnUse">
<stop stop-color="#8EEC6D"/>
<stop offset="0.534375" stop-color="#1F853B"/>
<stop offset="1" stop-color="#0852E2"/>
</linearGradient>
<linearGradient id="paint6_linear_160_80" x1="142.087" y1="22.8223" x2="10.2192" y2="133.472" gradientUnits="userSpaceOnUse">
<stop stop-color="#8EEC6D"/>
<stop offset="0.534375" stop-color="#1F853B"/>
<stop offset="1" stop-color="#0852E2"/>
</linearGradient>
</defs>
</svg>
